<svg height="511pt" viewBox="-30 0 511 511.99167" width="511pt" xmlns="http://www.w3.org/2000/svg"><path d="m439.289062 121.195312c.027344 12.289063-7.785156 23.226563-19.417968 27.1875-7.359375-15.140624-22.703125-24.769531-39.539063-24.804687-16.835937-.039063-32.21875 9.519531-39.644531 24.628906-9.277344-2.914062-17.179688-9.09375-22.246094-17.390625-.941406 1.332032-2.039062 2.546875-3.265625 3.621094-.003906.136719-.070312.265625-.179687.351562-11.871094 10.417969-27.292969 15.882813-43.078125 15.273438-11.601563.15625-23.050781-2.640625-33.277344-8.125-1.765625-10.414062-19.597656-9.53125-30.542969-9.53125-1.820312.011719-3.628906.25-5.386718.707031-3.761719-15.925781-17.976563-27.179687-34.339844-27.191406-1.003906-.027344-2.007813.03125-3 .175781-2.824219-8.207031 1.148437-24.449218-5.121094-30.1875 6.273438-8.269531 15.179688-14.15625 25.246094-16.683594-.144532-.488281-.203125-.996093-.175782-1.503906.019532-27.597656 19.5625-51.328125 46.648438-56.636718 27.085938-5.3125 54.140625 9.285156 64.578125 34.835937 3.257813-.847656 6.609375-1.292969 9.976563-1.324219 20.3125.003906 37.464843 15.078125 40.078124 35.21875 2.003907-.398437 4.046876-.574218 6.089844-.527344 2.101563-.050781 4.203125.125 6.269532.527344.890624.089844 1.773437.238282 2.648437.441406 1.113281.230469 2.207031.554688 3.265625.972657.242188.027343.476562.085937.703125.175781.972656.277344 1.914063.628906 2.828125 1.058594.699219.269531 1.378906.597656 2.027344.972656 1.273437.554688 2.484375 1.234375 3.621094 2.03125 1.328124.667969 2.546874 1.53125 3.617187 2.558594.71875.570312 1.398437 1.191406 2.03125 1.855468.574219.3125 1.085937.730469 1.5 1.234376.621094.617187 1.0625 1.148437 1.679687 1.765624.09375.097657.152344.21875.175782.351563 1.25 1.367187 2.371094 2.847656 3.355468 4.414063 1 1.492187 1.886719 3.054687 2.648438 4.679687 1.191406 2.195313 2.082031 4.539063 2.648438 6.972656 5.175781-4.53125 11.832031-7.011719 18.714843-6.972656 15.9375.003906 28.859375 12.925781 28.863281 28.867187zm0 0" fill="#4c8056"/><path d="m256.648438 282.472656c-16.421876 27.277344-9.09375 44.492188-1.238282 53.585938l-91.71875 3.882812c14.703125-15.035156 28.082032-31.308594 39.992188-48.640625 17.652344-26.480469 17.652344-52.964843-8.828125-61.792969-20.480469-6.796874-49.789063-29.484374-29.484375-63.824218h.085937l12.84375-31.070313 20.597657-7.355469 7.433593 37.722657c-6.976562 11.917969-8.210937 24.453125 6.175781 29.21875 7.410157 2.601562 14.441407 6.160156 20.921876 10.59375l27.542968 31.691406c6.316406 15.089844 4.695313 32.339844-4.324218 45.988281zm0 0" fill="#7f6e5d"/><path d="m80.097656 379.578125c0-24.363281 67.175782-44.136719 150.066406-44.136719 82.890626 0 150.070313 19.773438 150.070313 44.136719l-150.070313 23.71875zm0 0" fill="#f9eab0"/><path d="m238.992188 145.648438c0 12.1875-9.878907 22.066406-22.070313 22.066406-3.707031.015625-7.355469-.925782-10.589844-2.734375-2.554687-1.324219-4.785156-3.191407-6.535156-5.472657-2.898437 2.476563-6.21875 4.421876-9.796875 5.734376-7.851562 3.136718-16.582031 3.292968-24.542969.441406h-.085937c-4.304688-1.535156-8.265625-3.902344-11.652344-6.972656-19.757812 13.320312-46 11.730468-64-3.882813-5.96875 7.269531-14.597656 11.855469-23.964844 12.734375-9.367187.878906-18.695312-2.023438-25.910156-8.054688-4.144531 5.222657-10.460938 8.25-17.128906 8.207032-8.570313.058594-16.402344-4.851563-20.082032-12.59375-3.679687-7.742188-2.5429682-16.917969 2.917969-23.527344 5.457031-6.609375 14.25-9.460938 22.550781-7.308594 3.761719-15.925781 17.976563-27.179687 34.339844-27.191406 3.8125-.015625 7.605469.613281 11.210938 1.855469 5.417968-17.363281 19.363281-30.734375 36.941406-35.410157 17.578125-4.675781 36.328125-.003906 49.65625 12.371094 6.347656 5.851563 11.140625 13.195313 13.949219 21.363282.992187-.148438 1.996093-.207032 3-.179688 16.363281.011719 30.574219 11.265625 34.339843 27.191406 5.957032-1.554687 12.292969-.523437 17.453126 2.835938 5.15625 3.359375 8.660156 8.742187 9.648437 14.816406.246094 1.222656.367187 2.464844.351563 3.710938zm0 0" fill="#71c285"/><path d="m353.75 476.679688h-247.171875c-48.753906 0-88.277344-39.519532-88.277344-88.273438 0-4.875 3.953125-8.828125 8.828125-8.828125h406.070313c4.875 0 8.828125 3.953125 8.828125 8.828125 0 48.753906-39.523438 88.273438-88.277344 88.273438zm0 0" fill="#cbb292"/><path d="m106.578125 476.679688h61.792969v17.65625c0 9.75-7.902344 17.65625-17.65625 17.65625h-26.480469c-9.75 0-17.65625-7.90625-17.65625-17.65625zm0 0" fill="#7f6e5d"/><path d="m300.785156 476.679688h61.792969v17.65625c0 9.75-7.902344 17.65625-17.65625 17.65625h-26.480469c-9.75 0-17.65625-7.90625-17.65625-17.65625zm0 0" fill="#7f6e5d"/><path d="m450.855469 203.027344c0 19.5-15.808594 35.308594-35.3125 35.308594-9.519531-.289063-18.589844-4.128907-25.421875-10.769532-9.007813 7.324219-20.355469 11.148438-31.957032 10.769532-12.0625.46875-23.84375-3.703126-32.925781-11.652344-.089843-.085938-.175781-.175782-.175781-.265625-.917969-.851563-1.75-1.800781-2.472656-2.824219-5.277344 8.671875-14.5 14.171875-24.636719 14.703125s-19.878906-3.980469-26.035156-12.054687c-2.316407 4.605468-6.195313 8.234374-10.945313 10.242187-2.742187 1.246094-5.726562 1.878906-8.738281 1.851563-12.1875 0-22.070313-9.878907-22.070313-22.070313-.03125-4.058594 1.105469-8.039063 3.265626-11.472656 3.972656-6.589844 11.113281-10.609375 18.804687-10.59375 5.253906-.042969 10.339844 1.839843 14.300781 5.296875.453125-1.84375 1.132813-3.625 2.03125-5.296875.589844-1.253907 1.265625-2.464844 2.027344-3.621094.777344-1.175781 1.632812-2.296875 2.5625-3.351563 0-.089843.085938-.179687.175781-.265624.441407-.441407.792969-.882813 1.234375-1.324219.316406-.394531.707032-.722657 1.148438-.972657.53125-.527343 1.058594-.96875 1.589844-1.410156.816406-.773437 1.734374-1.429687 2.734374-1.945312.894532-.613282 1.839844-1.144532 2.828126-1.585938.472656-.289062.976562-.527344 1.5-.707031.703124-.34375 1.445312-.609375 2.207031-.796875.160156-.097656.339843-.15625.527343-.175781.796876-.328125 1.625-.5625 2.472657-.707031.667969-.164063 1.347656-.285157 2.03125-.351563 1.566406-.324219 3.164062-.472656 4.765625-.441406 1.570312-.03125 3.140625.117187 4.679687.441406 1.996094-15.394531 15.105469-26.917969 30.632813-26.921875 2.589844.003906 5.167968.332031 7.679687.96875.351563-.980469.792969-1.925781 1.324219-2.824219 7.425781-15.109375 22.808594-24.667969 39.644531-24.628906 16.835938.035156 32.179688 9.664063 39.539063 24.804687 2.988281 6.003907 4.527344 12.625 4.5 19.332032.015625.386718-.015625.769531-.085938 1.148437 15.628906 3.96875 26.570313 18.039063 26.570313 34.164063zm0 0" fill="#71c285"/><g fill="#fdd7ad"><path d="m80.097656 423.714844h-17.65625c-4.875 0-8.828125-3.953125-8.828125-8.828125s3.953125-8.824219 8.828125-8.824219h17.65625c4.875 0 8.824219 3.949219 8.824219 8.824219s-3.949219 8.828125-8.824219 8.828125zm0 0"/><path d="m203.683594 423.714844h-88.277344c-4.875 0-8.828125-3.953125-8.828125-8.828125s3.953125-8.824219 8.828125-8.824219h88.277344c4.875 0 8.824218 3.949219 8.824218 8.824219s-3.949218 8.828125-8.824218 8.828125zm0 0"/></g></svg>