<svg height="511pt" viewBox="-31 0 511 511.9973" width="511pt" xmlns="http://www.w3.org/2000/svg"><path d="m251.925781 246.855469c-9.957031.128906-19.394531-4.441407-25.460937-12.339844-6.070313-7.894531-8.058594-18.191406-5.367188-27.78125-4.199218-2.433594-8.621094-4.460937-13.203125-6.058594-7.429687-1.996093-13.488281-7.367187-16.363281-14.503906-1.71875-5.082031-1.871094-10.5625-.441406-15.734375-7.675782 2.9375-15.988282 3.808594-24.109375 2.523438-3.292969 6.804687-3.773438 14.632812-1.34375 21.789062 5.949219 12.179688 16.742187 21.304688 29.742187 25.140625 12.070313 3.308594 21.777344 12.28125 26.019532 24.054687 5.183593 15.097657.871093 34.167969-12.148438 53.699219-7.960938 11.667969-16.605469 22.855469-25.894531 33.496094 14.914062-1.332031 30.355469-2 45.714843-2 3.457032 0 6.910157.082031 10.367188.144531-3.941406-11.9375-3.902344-28.761718 9.226562-50.578125 6.191407-9.480469 8.390626-21.023437 6.117188-32.117187-.953125.082031-1.941406.265625-2.855469.265625zm0 0"/><path d="m89.457031 374.855469h279.222657c-16.457032-12.546875-63.640626-27.429688-139.609376-27.429688s-123.144531 14.882813-139.613281 27.429688zm0 0"/><path d="m311.128906 123.1875c.726563-.632812 1.375-1.355469 1.925782-2.148438.332031-.355468.691406-.683593 1.070312-.988281 1.308594-1.421875 3.039062-2.382812 4.9375-2.742187.609375-.050782 1.222656-.035156 1.828125.046875.570313-.03125 1.136719-.007813 1.703125.074219 1.777344.464843 3.371094 1.464843 4.570312 2.859374.425782.386719.820313.808594 1.171876 1.261719 2.851562 4.640625 6.820312 8.492188 11.546874 11.199219 10.207032-14.398438 26.742188-22.980469 44.394532-23.039062 17.652344-.058594 34.242187 8.414062 44.546875 22.75 6.828125-5.523438 9.433593-14.753907 6.5-23.035157-2.9375-8.277343-10.773438-13.804687-19.558594-13.792969-4.90625-.054687-9.664063 1.703126-13.355469 4.9375-2.441406 2.136719-5.832031 2.820313-8.910156 1.796876-3.078125-1.023438-5.382812-3.601563-6.058594-6.773438-.414062-1.714844-1.054687-3.363281-1.910156-4.910156-.605469-1.316406-1.308594-2.585938-2.113281-3.792969-.769531-1.269531-1.65625-2.460937-2.648438-3.566406-.339843-.351563-.644531-.734375-.914062-1.140625l-.175781-.175782-.667969-.640624-.082031-.082032c-.695313-.457031-1.328126-1.007812-1.882813-1.636718l-1.261719-1.078126c-.589844-.585937-1.269531-1.074218-2.011718-1.445312-.316407-.167969-.621094-.351562-.914063-.554688-.675781-.480468-1.398437-.890624-2.15625-1.226562-.316406-.128906-.621094-.28125-.914063-.449219-.292968-.109375-1.382812-.628906-1.65625-.765625-.46875-.210937-.949218-.382812-1.445312-.511718-.570312-.117188-1.125-.289063-1.664062-.511719-.628907-.238281-1.277344-.417969-1.9375-.542969-.488282-.113281-.980469-.199219-1.480469-.253906-.414063-.035156-.820313-.101563-1.226563-.191406-2.878906-.566407-5.839844-.566407-8.722656 0-2.507812.554687-5.132812.027343-7.234375-1.449219-2.101563-1.480469-3.484375-3.773438-3.808594-6.324219-2.140625-16.296875-16.019531-28.484375-32.457031-28.507812-2.742188.03125-5.46875.398437-8.121094 1.097656-4.410156 1.101562-8.960937-1.210938-10.675781-5.421875-9.144531-22.371094-32.808594-35.171875-56.535156-30.585938-23.726563 4.589844-40.914063 25.292969-41.058594 49.457031.972656 4.792969-1.996094 9.5-6.738281 10.6875-5.933594 1.515626-11.414063 4.441407-15.972656 8.53125 3.222656 3.925782 5.960937 8.222657 8.15625 12.800782 17.066406 1.070312 32.085937 11.621094 38.886718 27.308594 13.367188.367187 25.097656 9.007812 29.410156 21.667968 8.410157 3.851563 17.558594 5.816406 26.808594 5.761719 13.570313.53125 26.871094-3.890625 37.421875-12.445313.40625-.550781.871094-1.054687 1.390625-1.507812zm0 0"/><path d="m14.214844 155.425781c4.101562.039063 7.996094-1.8125 10.558594-5.019531 1.523437-1.949219 3.773437-3.195312 6.234374-3.453125 2.460938-.261719 4.921876.488281 6.820313 2.074219 4.910156 4.125 11.113281 6.394531 17.527344 6.398437 8.21875-.019531 16.003906-3.707031 21.222656-10.058593 1.574219-1.894532 3.851563-3.074219 6.308594-3.269532 2.457031-.195312 4.890625.613282 6.746093 2.238282 8.207032 7.226562 18.789063 11.175781 29.722657 11.089843 9.054687.023438 17.910156-2.675781 25.410156-7.753906 3.480469-2.355469 8.121094-2.035156 11.242187.777344 10.210938 8.78125 25.226563 9.039062 35.730469.613281 1.648438-1.382812 3.730469-2.140625 5.878907-2.140625h.914062c2.460938.253906 4.714844 1.496094 6.246094 3.4375 2.554687 3.230469 6.460937 5.101563 10.578125 5.066406 7.574219 0 13.714843-6.140625 13.714843-13.714843 0-7.574219-6.140624-13.714844-13.714843-13.714844-1.128907.011718-2.253907.164062-3.347657.457031-2.367187.605469-4.878906.226563-6.964843-1.050781-2.09375-1.265625-3.59375-3.324219-4.160157-5.703125-3.003906-12.640625-14.441406-21.457031-27.429687-21.140625-.257813-.015625-.515625-.015625-.777344 0-4.402343.652344-8.671875-1.84375-10.257812-6.007813-6.394531-18.304687-23.671875-30.5625-43.0625-30.554687-19.957031.121094-37.578125 13.0625-43.65625 32.074218-.738281 2.367188-2.40625 4.335938-4.625 5.449219s-4.792969 1.277344-7.132813.457031c-2.761718-.949218-5.664062-1.425781-8.585937-1.40625-12.722657-.023437-23.78125 8.734376-26.667969 21.128907-.566406 2.378906-2.0625 4.433593-4.152344 5.703125-2.089844 1.269531-4.601562 1.648437-6.976562 1.050781-1.089844-.292969-2.214844-.445313-3.34375-.457031-7.574219 0-13.714844 6.140625-13.714844 13.714844 0 7.574218 6.140625 13.714843 13.714844 13.714843zm0 0"/><path d="m281.96875 189.136719-.246094-.175781c-.128906.253906-.269531.503906-.429687.742187.238281-.171875.464843-.363281.675781-.566406zm0 0"/><path d="m448.5 201.140625c0-12.515625-8.496094-23.4375-20.628906-26.515625-4.519532-1.148438-7.453125-5.519531-6.800782-10.136719-.085937-17.433593-12.464843-32.382812-29.578124-35.71875-17.113282-3.332031-34.199219 5.875-40.820313 22.003907-1.714844 4.214843-6.265625 6.527343-10.679687 5.429687-6.355469-1.679687-13.121094-.535156-18.566407 3.144531-5.445312 3.679688-9.03125 9.535156-9.839843 16.054688-.332032 2.570312-1.734376 4.875-3.863282 6.351562-2.128906 1.472656-4.78125 1.976563-7.300781 1.382813-.914063-.183594-1.847656-.28125-2.78125-.28125-.953125-.03125-1.90625.039062-2.84375.210937-.300781.070313-.613281.125-.914063.171875-.300781.046875-1.222656.210938-1.472656.257813-.652344.28125-1.335937.492187-2.039062.628906l-.636719.191406c-.375.183594-1.21875.496094-1.609375.632813-.742188.355469-1.457031.753906-2.148438 1.195312-.273437.195313-.558593.367188-.851562.523438-.28125.136719-.550781.304687-.796875.5-.914063.796875-1.25 1.070312-1.597656 1.417969-.445313.445312-.9375.84375-1.464844 1.191406l-.070313.109375h.042969l-.292969.308593c-.1875.253907-.386718.5-.601562.730469-.667969.785157-1.277344 1.617188-1.828125 2.488281-.535156.84375-1.015625 1.71875-1.4375 2.625-.609375 1.109376-1.074219 2.292969-1.386719 3.519532-.742187 3.125-3.070312 5.632812-6.132812 6.605468-3.0625.972657-6.410156.265626-8.816406-1.859374-2.449219-2.101563-5.589844-3.226563-8.816407-3.164063-6.75 0-12.496093 4.910156-13.546875 11.578125-1.050781 6.667969 2.90625 13.109375 9.328125 15.183594 6.425781 2.078125 13.402344-.828125 16.453125-6.847656 1.421875-2.808594 4.191406-4.683594 7.324219-4.96875 3.132813-.289063 6.191406 1.058593 8.101563 3.558593 4.542968 5.960938 11.738281 9.289063 19.222656 8.894531 7.484375-.390624 14.292968-4.457031 18.1875-10.859374.207031-.257813.429687-.496094.667968-.722657.488282-.722656 1.085938-1.371093 1.765626-1.917969.964843-.699218 2.058593-1.199218 3.21875-1.472656 1.171874-.070312 2.34375-.117187 3.519531-.136718 1.1875.179687 2.328125.59375 3.355469 1.214843.324218.25.628906.527344.914062.824219.652344.457031 1.238281 1 1.746094 1.617188.386718.550781.824218 1.058593 1.308594 1.527343l.097656.097657c.074218.066406.128906.148437.203125.210937.234375.222656.457031.460937.667969.707031 7.675781 6.179688 17.335937 9.355469 27.179687 8.941406 9.75.351563 19.304687-2.765624 26.972656-8.796874.390625-.28125.808594-.53125 1.242188-.742188.503906-.355469 1.042969-.664062 1.609375-.914062.546875-.171876 1.105468-.292969 1.671875-.363282.574219-.136718 1.160156-.21875 1.75-.246094.578125.042969 1.15625.144532 1.71875.300782.566406.082031 1.128906.21875 1.671875.410156.542968.277344 1.0625.605469 1.542968.980469.4375.226562.855469.492187 1.246094.792969 5.378906 5.230468 12.503906 8.285156 20.003906 8.578124 7.273438 0 14.25-2.890624 19.394532-8.035156 5.144531-5.144531 8.035156-12.121094 8.035156-19.394531zm0 0"/><path d="m439.355469 393.140625h-420.570313c.054688 45.421875 36.863282 82.230469 82.285156 82.285156h256c45.421876-.054687 82.230469-36.863281 82.285157-82.285156zm-365.714844 36.570313h-18.285156c-5.050781 0-9.140625-4.09375-9.140625-9.140626 0-5.050781 4.089844-9.144531 9.140625-9.144531h18.285156c5.050781 0 9.144531 4.09375 9.144531 9.144531 0 5.046876-4.09375 9.140626-9.144531 9.140626zm128 0h-91.425781c-5.050782 0-9.144532-4.09375-9.144532-9.140626 0-5.050781 4.09375-9.144531 9.144532-9.144531h91.425781c5.050781 0 9.144531 4.09375 9.144531 9.144531 0 5.046876-4.09375 9.140626-9.144531 9.140626zm0 0"/><path d="m320.5 511.996094h27.425781c5.050781 0 9.144531-4.09375 9.144531-9.140625v-9.144531h-45.714843v9.144531c0 5.046875 4.09375 9.140625 9.144531 9.140625zm0 0"/><path d="m119.355469 511.996094h27.429687c5.046875 0 9.140625-4.09375 9.140625-9.140625v-9.144531h-45.710937v9.144531c0 5.046875 4.089844 9.140625 9.140625 9.140625zm0 0"/></svg>